<svg width="20" height="22" viewBox="0 0 20 22" fill="none" xmlns="http://www.w3.org/2000/svg">
<path d="M0 0V10.8647C0 16.8403 4.5 21.7295 10 21.7295C15.5 21.7295 20 16.8403 20 10.8647V0H0ZM16.9667 10.8285C16.9667 14.9933 13.8334 18.4338 9.96669 18.4338C6.13335 18.4338 2.96667 15.0296 2.96667 10.8285H4.93335C4.93335 12.2772 5.43332 13.6533 6.4 14.6674C7.33332 15.6814 8.63332 16.2609 9.93336 16.2609C11.2667 16.2609 12.5334 15.7176 13.4667 14.6674C14.4 13.6533 14.9333 12.2409 14.9333 10.8285V5.39614H3V3.25942H16.9667V10.8285Z" fill="white"/>
</svg>
