<svg width="300" height="52" viewBox="0 0 300 52" fill="none" xmlns="http://www.w3.org/2000/svg">
<g clip-path="url(#clip0_4468_45)">
<path d="M289.162 8.84H286.994V7.97333H292.283V8.84H290.029V15.6H289.075V8.84H289.162Z" fill="white"/>
<path d="M299.046 12.22C299.046 11.18 298.96 9.79333 298.96 8.92667C298.699 9.79333 298.353 10.8333 298.006 11.7867L296.705 15.4267H296.012L294.798 11.7867C294.451 10.66 294.191 9.79333 293.931 8.75333C293.931 9.79333 293.844 11.0067 293.844 12.1333L293.584 15.4267H292.717L293.15 7.71333H294.364L295.578 11.3533C295.925 12.22 296.185 13.0867 296.272 13.8667C296.532 13.0867 296.705 12.22 296.965 11.3533L298.266 7.71333H299.48L299.913 15.4267H298.96V12.22H299.046Z" fill="white"/>
<path d="M72.3989 38.3067C71.0984 38.3067 70.0579 38.22 69.3643 38.0467V34.9267C70.0579 35.0133 70.6648 35.1 71.2718 35.1C72.3122 35.1 73.0059 34.9267 73.4394 34.58C73.8729 34.2333 74.2197 33.7133 74.3065 33.28C74.3932 32.76 74.4799 32.0667 74.4799 31.2867V9.01333H78.7284V32.3267C78.7284 33.8867 78.2949 35.2733 77.5145 36.5733C76.7342 37.7 75.0001 38.3067 72.3989 38.3067Z" fill="white"/>
<path d="M104.306 38.22H99.9712V34.2333H99.7111C99.1908 35.4467 98.3238 36.4867 97.1099 37.3533C95.9828 38.22 94.5088 38.5667 92.8614 38.5667C90.9538 38.5667 89.4799 38.1333 88.266 37.2667C87.1388 36.3133 86.2718 35.1867 85.7515 33.8C85.2313 32.4133 84.9712 30.94 84.9712 29.38V16.2067H89.2197V28.6867C89.2197 30.5933 89.74 32.1533 90.6937 33.1933C91.6475 34.2333 92.9481 34.84 94.5955 34.84C96.2429 34.84 97.6301 34.2333 98.5839 33.1067C99.5377 31.98 100.058 30.42 100.058 28.6867V16.2067H104.393V38.22H104.306Z" fill="white"/>
<path d="M109.682 16.2067H113.931V19.6733H114.191C114.538 18.72 115.231 17.8533 116.098 17.2467C117.052 16.5533 118.266 16.2067 119.74 16.2067C120.087 16.2067 120.434 16.2067 120.78 16.2067C121.041 16.2067 121.301 16.2933 121.647 16.38L121.474 20.4533C120.694 20.1933 119.913 20.1067 119.133 20.1067C117.486 20.1067 116.272 20.54 115.318 21.4933C114.451 22.4467 114.017 23.92 114.017 26.0867V38.0467H109.769V16.2067H109.682Z" fill="white"/>
<path d="M125.983 16.2067H130.231V38.1333H125.983V16.2067ZM128.064 12.22C127.283 12.22 126.677 11.96 126.156 11.44C125.636 10.92 125.376 10.3133 125.376 9.53333C125.376 8.75333 125.636 8.14667 126.156 7.62667C126.677 7.10667 127.283 6.84667 128.064 6.84667C128.844 6.84667 129.451 7.10667 129.971 7.62667C130.492 8.14667 130.752 8.75333 130.752 9.44667C130.752 10.14 130.492 10.8333 129.971 11.3533C129.451 11.96 128.844 12.22 128.064 12.22Z" fill="white"/>
<path d="M144.017 38.48C142.196 38.48 140.636 38.1333 139.335 37.44C138.035 36.7467 136.994 35.88 136.387 34.7533C135.693 33.6267 135.347 32.4133 135.347 31.2V31.0267H139.595V31.2C139.595 32.24 140.029 33.1067 140.809 33.8867C141.589 34.6667 142.717 35.0133 144.191 35.0133C145.404 35.0133 146.358 34.7533 147.139 34.1467C147.919 33.54 148.266 32.76 148.266 31.8067C148.266 30.94 147.919 30.2467 147.312 29.8133C146.705 29.2933 145.925 28.9467 144.971 28.7733L142.196 28.34C140.462 28.08 138.902 27.4733 137.688 26.4333C136.474 25.3933 135.78 24.0067 135.78 22.1C135.78 20.02 136.474 18.46 137.948 17.3333C139.422 16.2067 141.329 15.6 143.67 15.6C145.318 15.6 146.792 15.9467 148.092 16.5533C149.306 17.16 150.26 18.0267 150.954 18.98C151.561 20.02 151.907 21.1467 151.907 22.2733V22.5333H147.659V22.4467C147.659 21.58 147.312 20.8 146.705 20.02C146.011 19.24 145.058 18.8933 143.67 18.8933C142.543 18.8933 141.589 19.1533 140.809 19.76C140.115 20.3667 139.769 21.1467 139.769 22.0133C139.769 22.7933 140.115 23.4867 140.722 24.0067C141.329 24.5267 142.11 24.7867 142.977 24.96L145.925 25.48C147.746 25.8267 149.306 26.4333 150.52 27.4733C151.734 28.4267 152.428 29.9 152.428 31.72C152.428 33.02 152.081 34.2333 151.387 35.2733C150.694 36.3133 149.653 37.0933 148.439 37.6133C147.052 38.22 145.665 38.48 144.017 38.48Z" fill="white"/>
<path d="M161.445 9.01333H171.937C174.538 9.01333 176.792 9.62 178.786 10.8333C180.781 11.96 182.255 13.6933 183.295 15.9467C184.335 18.1133 184.942 20.7133 184.942 23.66C184.942 26.6067 184.422 29.2067 183.295 31.3733C182.255 33.54 180.694 35.2733 178.786 36.4867C176.879 37.7 174.538 38.3067 171.937 38.3067H161.532V9.01333H161.445ZM171.59 35.5333C173.671 35.5333 175.405 35.1 176.966 34.1467C178.526 33.1933 179.74 31.8067 180.607 29.9867C181.474 28.1667 181.908 26 181.908 23.4867C181.908 20.9733 181.474 18.8067 180.607 17.0733C179.74 15.2533 178.526 13.8667 176.966 13C175.405 12.0467 173.584 11.6133 171.59 11.6133H164.307V35.5333H171.59Z" fill="white"/>
<path d="M190.318 16.2933H193.179V38.22H190.318V16.2933ZM191.705 12.1333C191.099 12.1333 190.665 11.96 190.231 11.5267C189.885 11.0933 189.625 10.5733 189.625 10.0533C189.625 9.53333 189.798 9.01333 190.231 8.66667C190.578 8.23333 191.099 8.06 191.705 8.06C192.312 8.06 192.746 8.23333 193.179 8.66667C193.526 9.01333 193.786 9.53333 193.786 10.0533C193.786 10.66 193.613 11.0933 193.179 11.5267C192.746 11.8733 192.226 12.1333 191.705 12.1333Z" fill="white"/>
<path d="M209.74 46.8C208.439 46.8 207.312 46.6267 206.185 46.1933V43.7667C206.532 43.8533 206.965 43.94 207.572 44.0267C208.179 44.1133 208.786 44.1133 209.48 44.1133C211.734 44.1133 213.468 43.5067 214.595 42.2067C215.809 40.9933 216.416 39.26 216.416 37.0933V32.76H216.069C215.462 34.1467 214.422 35.36 213.121 36.2267C211.821 37.18 210.173 37.6133 208.353 37.6133C206.532 37.6133 204.884 37.18 203.497 36.2267C202.11 35.2733 200.983 33.9733 200.202 32.3267C199.422 30.5933 199.075 28.6867 199.075 26.6067C199.075 24.44 199.422 22.5333 200.202 20.8867C200.983 19.1533 202.11 17.8533 203.497 16.9C204.884 15.9467 206.532 15.5133 208.439 15.5133C210.347 15.5133 211.994 16.0333 213.382 16.9867C214.769 18.0267 215.723 19.24 216.33 20.6267H216.59V16.2067H219.451V37.0933C219.451 38.6533 219.104 40.2133 218.497 41.6867C217.804 43.16 216.763 44.3733 215.376 45.3267C213.728 46.3667 211.908 46.8 209.74 46.8ZM209.22 35.1867C210.78 35.1867 212.081 34.84 213.121 34.06C214.162 33.28 215.029 32.24 215.549 30.8533C216.069 29.5533 216.416 28.08 216.416 26.52C216.416 25.0467 216.156 23.66 215.549 22.36C215.029 21.06 214.249 20.02 213.121 19.24C212.081 18.46 210.78 18.1133 209.22 18.1133C207.659 18.1133 206.358 18.46 205.231 19.24C204.191 20.02 203.41 21.06 202.804 22.36C202.283 23.66 202.023 25.0467 202.023 26.52C202.023 28.08 202.283 29.4667 202.804 30.8533C203.324 32.1533 204.191 33.1933 205.231 34.06C206.272 34.7533 207.659 35.1867 209.22 35.1867Z" fill="white"/>
<path d="M226.214 16.2933H229.075V38.22H226.214V16.2933ZM227.515 12.1333C226.908 12.1333 226.474 11.96 226.041 11.5267C225.694 11.0933 225.434 10.5733 225.434 10.0533C225.434 9.53333 225.607 9.01333 226.041 8.66667C226.387 8.23333 226.908 8.06 227.515 8.06C228.121 8.06 228.555 8.23333 228.989 8.66667C229.335 9.01333 229.595 9.53333 229.595 10.0533C229.595 10.66 229.422 11.0933 228.989 11.5267C228.642 11.8733 228.121 12.1333 227.515 12.1333Z" fill="white"/>
<path d="M241.041 18.6333V32.3267C241.041 33.3667 241.041 34.1467 241.127 34.6667C241.214 35.1 241.474 35.5333 241.908 35.7933C242.341 36.0533 243.035 36.2267 243.902 36.2267C244.595 36.2267 245.376 36.14 246.243 35.9667V38.0467C245.983 38.1333 245.549 38.22 244.942 38.3067C244.422 38.3933 243.815 38.3933 243.121 38.3933C241.647 38.3933 240.52 38.22 239.827 37.7867C239.133 37.3533 238.613 36.7467 238.353 35.9667C238.093 35.1867 238.006 34.2333 238.006 32.9333V18.6333H233.757V16.2933H238.006V9.01333H240.867V16.2933H246.156V18.6333H241.041Z" fill="white"/>
<path d="M259.942 38.3933C258.034 38.3933 256.3 37.8733 254.913 36.92C253.526 35.88 252.485 34.58 251.705 32.8467C251.011 31.1133 250.665 29.2067 250.665 27.04C250.665 24.8733 251.011 22.9667 251.705 21.2333C252.485 19.5 253.526 18.1133 254.913 17.0733C256.387 16.0333 258.034 15.6 260.029 15.6C262.023 15.6 263.584 16.12 264.797 17.0733C266.011 18.0267 266.965 19.1533 267.659 20.54H267.919V16.2933H270.78V38.22H267.919V33.4533H267.659C266.965 34.84 265.925 36.0533 264.711 37.0067C263.497 37.96 261.936 38.3933 259.942 38.3933ZM260.722 35.88C263.063 35.88 264.797 35.0133 266.011 33.3667C267.225 31.6333 267.919 29.5533 267.919 26.9533C267.919 24.3533 267.312 22.2733 266.011 20.6267C264.797 18.98 262.977 18.1133 260.722 18.1133C258.381 18.1133 256.56 18.98 255.347 20.6267C254.133 22.2733 253.526 24.3533 253.526 26.9533C253.526 29.4667 254.133 31.6333 255.347 33.3667C256.647 35.0133 258.381 35.88 260.722 35.88Z" fill="white"/>
<path d="M282.832 38.3933C281.358 38.3933 280.231 38.1333 279.451 37.6133C278.757 37.0933 278.237 36.4867 278.063 35.62C277.89 34.7533 277.803 33.7133 277.803 32.4133V6.93333H280.665V32.0667C280.665 33.1067 280.664 33.9733 280.751 34.4933C280.838 35.0133 281.098 35.4467 281.532 35.7067C281.965 36.0533 282.659 36.14 283.612 36.14C283.873 36.14 284.219 36.14 284.566 36.14C284.913 36.0533 285.173 36.0533 285.26 36.0533V38.1333C284.393 38.3067 283.612 38.3933 282.832 38.3933Z" fill="white"/>
<path d="M0 0V26C0 40.3 11.7052 52 26.0116 52C40.3179 52 52.0231 40.3 52.0231 26V0H0ZM44.133 25.9133C44.133 35.88 35.9827 44.1133 25.9249 44.1133C15.9538 44.1133 7.71676 35.9667 7.71676 25.9133H12.8324C12.8324 29.38 14.1329 32.6733 16.6474 35.1C19.0751 37.5267 22.4566 38.9133 25.8382 38.9133C29.3064 38.9133 32.6012 37.6133 35.0289 35.1C37.4566 32.6733 38.8439 29.2933 38.8439 25.9133V12.9133H7.80347V7.8H44.133V25.9133Z" fill="white"/>
</g>
<defs>
<clipPath id="clip0_4468_45">
<rect width="300" height="52" fill="white"/>
</clipPath>
</defs>
</svg>
