<svg width="20" height="20" viewBox="0 0 20 20" fill="none" xmlns="http://www.w3.org/2000/svg">
<g clip-path="url(#clip0_5581_109)">
<path opacity="0.4" d="M2.37891 15.7461C2.37891 16.2434 2.57645 16.7203 2.92808 17.0719C3.27971 17.4236 3.75663 17.6211 4.25391 17.6211C4.75119 17.6211 5.2281 17.4236 5.57973 17.0719C5.93136 16.7203 6.12891 16.2434 6.12891 15.7461C6.12891 15.4999 6.08041 15.2561 5.98618 15.0286C5.89195 14.8011 5.75384 14.5944 5.57973 14.4203C5.40562 14.2462 5.19892 14.1081 4.97144 14.0138C4.74395 13.9196 4.50013 13.8711 4.25391 13.8711C4.00768 13.8711 3.76386 13.9196 3.53637 14.0138C3.30889 14.1081 3.10219 14.2462 2.92808 14.4203C2.75397 14.5944 2.61586 14.8011 2.52163 15.0286C2.4274 15.2561 2.37891 15.4999 2.37891 15.7461ZM8.125 18.125C8.125 18.6223 8.32254 19.0992 8.67417 19.4508C9.02581 19.8025 9.50272 20 10 20C10.4973 20 10.9742 19.8025 11.3258 19.4508C11.6775 19.0992 11.875 18.6223 11.875 18.125C11.875 17.6277 11.6775 17.1508 11.3258 16.7992C10.9742 16.4475 10.4973 16.25 10 16.25C9.50272 16.25 9.02581 16.4475 8.67417 16.7992C8.32254 17.1508 8.125 17.6277 8.125 18.125ZM14.418 2.92969C14.2438 3.10384 14.1057 3.3106 14.0114 3.53814C13.9172 3.76569 13.8687 4.00957 13.8687 4.25586C13.8687 4.75327 14.0662 5.23031 14.418 5.58203C14.7697 5.93376 15.2467 6.13135 15.7441 6.13135C16.2416 6.13135 16.7186 5.93376 17.0703 5.58203C17.422 5.23031 17.6196 4.75327 17.6196 4.25586C17.6196 3.75845 17.422 3.28141 17.0703 2.92969C16.7186 2.57797 16.2416 2.38037 15.7441 2.38037C15.2467 2.38037 14.7697 2.57797 14.418 2.92969ZM14.418 14.4219C14.2352 14.594 14.0888 14.8011 13.9875 15.0309C13.8863 15.2606 13.8322 15.5084 13.8285 15.7595C13.8248 16.0105 13.8716 16.2598 13.9661 16.4924C14.0606 16.7251 14.2008 16.9364 14.3785 17.1138C14.5561 17.2912 14.7677 17.4311 15.0004 17.5253C15.2332 17.6194 15.4825 17.6658 15.7336 17.6617C15.9846 17.6577 16.2323 17.6032 16.462 17.5016C16.6916 17.4001 16.8985 17.2534 17.0703 17.0703C17.2445 16.8962 17.3826 16.6894 17.4769 16.4619C17.5711 16.2343 17.6196 15.9904 17.6196 15.7441C17.6196 15.4979 17.5711 15.254 17.4769 15.0264C17.3826 14.7989 17.2445 14.5921 17.0703 14.418C16.8962 14.2438 16.6894 14.1057 16.4619 14.0114C16.2343 13.9172 15.9904 13.8687 15.7441 13.8687C15.4978 13.8687 15.254 13.9172 15.0264 14.0114C14.7989 14.1057 14.5921 14.2438 14.418 14.418V14.4219ZM16.25 10C16.25 10.4973 16.4475 10.9742 16.7992 11.3258C17.1508 11.6775 17.6277 11.875 18.125 11.875C18.6223 11.875 19.0992 11.6775 19.4508 11.3258C19.8025 10.9742 20 10.4973 20 10C20 9.50272 19.8025 9.02581 19.4508 8.67418C19.0992 8.32255 18.6223 8.125 18.125 8.125C17.6277 8.125 17.1508 8.32255 16.7992 8.67418C16.4475 9.02581 16.25 9.50272 16.25 10Z" fill="black"/>
<path d="M11.875 1.875C11.875 1.37772 11.6775 0.900805 11.3258 0.549175C10.9742 0.197544 10.4973 0 10 0C9.50272 0 9.02581 0.197544 8.67417 0.549175C8.32254 0.900805 8.125 1.37772 8.125 1.875C8.125 2.37228 8.32254 2.84919 8.67417 3.20083C9.02581 3.55246 9.50272 3.75 10 3.75C10.4973 3.75 10.9742 3.55246 11.3258 3.20083C11.6775 2.84919 11.875 2.37228 11.875 1.875ZM3.75 10C3.75 9.50272 3.55246 9.02581 3.20083 8.67417C2.84919 8.32254 2.37228 8.125 1.875 8.125C1.37772 8.125 0.900805 8.32254 0.549175 8.67417C0.197544 9.02581 0 9.50272 0 10C0 10.4973 0.197544 10.9742 0.549175 11.3258C0.900805 11.6775 1.37772 11.875 1.875 11.875C2.37228 11.875 2.84919 11.6775 3.20083 11.3258C3.55246 10.9742 3.75 10.4973 3.75 10ZM2.92969 5.58203C3.10384 5.75619 3.3106 5.89433 3.53814 5.98859C3.76569 6.08284 4.00957 6.13135 4.25586 6.13135C4.50215 6.13135 4.74603 6.08284 4.97358 5.98859C5.20112 5.89433 5.40788 5.75619 5.58203 5.58203C5.75619 5.40788 5.89433 5.20112 5.98859 4.97358C6.08284 4.74603 6.13135 4.50215 6.13135 4.25586C6.13135 4.00957 6.08284 3.76569 5.98859 3.53814C5.89433 3.3106 5.75619 3.10384 5.58203 2.92969C5.23031 2.57796 4.75327 2.38037 4.25586 2.38037C3.75845 2.38037 3.28141 2.57796 2.92969 2.92969C2.57796 3.28141 2.38037 3.75845 2.38037 4.25586C2.38037 4.75327 2.57796 5.23031 2.92969 5.58203Z" fill="black"/>
</g>
<defs>
<clipPath id="clip0_5581_109">
<rect width="20" height="20" fill="white"/>
</clipPath>
</defs>
</svg>
